<svg xmlns="http://www.w3.org/2000/svg" width="32" height="32" viewBox="0 0 48 48" role="img" aria-label="????">
  <circle cx="24" cy="24" r="24" fill="#5E6F8A"/>
  <g fill="#FFFFFF">
    <path d="M4 39.1 L44 35.9 L43.2 37.3 L3.2 40.5 Z"/>
    <path d="M9.2 37.4 L34.8 35.1 C36.8 34.9 38.2 33.8 38.6 32.4 C38.9 31.4 38.4 30.6 37.4 30.8 L10.4 33.1 C9.2 33.2 8.6 34 8.8 35.1 C9 36.2 9.6 37.2 9.2 37.4 Z"/>
    <path d="M7.4 39.2 L33 36.9 C35 36.7 36.4 35.6 36.8 34.2 C37.1 33.2 36.6 32.4 35.6 32.6 L8.6 34.9 C7.4 35 6.8 35.8 7 36.9 C7.2 38 7.8 39 7.4 39.2 Z"/>
    <path d="M17.8 33.6 L21.2 33.2 L24.6 24.8 L22.4 24.2 Z"/>
    <path d="M21.2 33.2 L26.4 32.6 L29.2 26.4 L24.6 24.8 Z"/>
    <path d="M26.4 32.6 L30.8 31.9 L33.6 20.4 L29.2 26.4 Z"/>
    <path d="M30.8 31.9 L33.8 31.4 L35.2 22.8 L33.6 20.4 Z"/>
    <path d="M33.6 20.4 L35.2 22.8 L37.8 18.2 L36.2 16.8 Z"/>
    <circle cx="37.6" cy="13.4" r="3.4"/>
    <rect x="3.2" y="27.2" width="20.8" height="2" rx="1"/>
  </g>
</svg>
