<svg xmlns="http://www.w3.org/2000/svg" viewBox="0 0 48 48" role="img" aria-label="??">
  <!-- ???????????Color ????????? -->
  <g fill="#1A4F4A">
    <path d="M14 8c0 4-2.2 6.4-2.2 10.2 0 2.2 1 3.8 2.2 3.8s2.2-1.6 2.2-3.8C16.2 14.4 14 12 14 8z"/>
    <path d="M24 5c0 5.2-2.8 8.4-2.8 13.2 0 2.8 1.2 4.8 2.8 4.8s2.8-2 2.8-4.8C26.8 13.4 24 10.2 24 5z"/>
    <path d="M34 8c0 4-2.2 6.4-2.2 10.2 0 2.2 1 3.8 2.2 3.8s2.2-1.6 2.2-3.8C36.2 14.4 34 12 34 8z"/>
    <path d="M10 30h28c2.2 0 4 1.8 4 4v2c0 2.2-1.8 4-4 4H10c-2.2 0-4-1.8-4-4v-2c0-2.2 1.8-4 4-4zm0 3c-.6 0-1 .4-1 1v2c0 .6.4 1 1 1h28c.6 0 1-.4 1-1v-2c0-.6-.4-1-1-1H10z"/>
    <ellipse cx="24" cy="36" rx="10" ry="2.2" opacity="0.35"/>
  </g>
</svg>
